<svg width="152" height="24" viewBox="0 0 152 24" fill="none" xmlns="http://www.w3.org/2000/svg">
  <path d="M64.7012 24L68.8933 0H151.974L147.812 24H64.7012Z" fill="#FF2B85"/>
  <path d="M92.3551 11.2804C92.3848 11.1013 92.4033 10.9632 92.4109 10.866C92.4183 10.7693 92.4222 10.6758 92.4222 10.5862C92.4222 10.0637 92.2544 9.69042 91.9185 9.46648C91.5826 9.24275 91.086 9.13056 90.4291 9.13056C89.9064 9.13056 89.3653 9.23144 88.8054 9.43299C88.2455 9.63454 87.7492 9.89197 87.316 10.2057L86.3083 8.43654C86.9201 8.00365 87.6183 7.66382 88.4023 7.41747C89.1859 7.17092 89.9884 7.04785 90.8096 7.04785C91.3171 7.04785 91.8208 7.10395 92.3211 7.2157C92.8212 7.32789 93.2691 7.51075 93.665 7.76426C94.0603 8.01843 94.3778 8.35044 94.6167 8.76093C94.8554 9.17186 94.975 9.68281 94.975 10.2951C94.975 10.4294 94.9672 10.5938 94.9524 10.7878C94.9374 10.9821 94.915 11.1539 94.8852 11.3028L94.1014 15.6698C94.0266 16.0879 93.9631 16.5208 93.9112 16.9687C93.8588 17.4168 93.8329 17.7899 93.8329 18.0884H91.4143C91.4143 17.6853 91.4591 17.2598 91.5486 16.8119H91.5038C90.6674 17.8125 89.5029 18.3124 88.0103 18.3124C87.637 18.3124 87.2489 18.2676 86.8458 18.178C86.4427 18.0884 86.0767 17.9356 85.7484 17.719C85.4199 17.5027 85.1512 17.2115 84.9422 16.8454C84.7331 16.4797 84.6289 16.0207 84.6289 15.4682C84.6289 14.5875 84.8639 13.8747 85.3342 13.3294C85.8045 12.7846 86.4127 12.3591 87.1595 12.0529C87.9059 11.7472 88.7384 11.5418 89.6564 11.4372C90.5746 11.3331 91.4738 11.2804 92.3551 11.2804ZM91.7952 13.1614C91.2873 13.1614 90.7611 13.1803 90.2163 13.2175C89.671 13.2549 89.1709 13.3405 88.7158 13.4751C88.2603 13.6095 87.8872 13.7997 87.5963 14.0461C87.3054 14.2924 87.1595 14.6249 87.1595 15.0427C87.1595 15.2967 87.2078 15.5093 87.3052 15.6811C87.4019 15.8529 87.5326 15.9911 87.697 16.0953C87.8611 16.1999 88.0477 16.2744 88.2568 16.3192C88.4658 16.364 88.6823 16.3864 88.9063 16.3864C89.3094 16.3864 89.6862 16.3192 90.0371 16.1849C90.3876 16.0505 90.6939 15.8679 90.9555 15.6363C91.2164 15.405 91.433 15.1362 91.6047 14.8301C91.7763 14.5242 91.8993 14.1917 91.9741 13.8334L92.1085 13.1616H91.7952V13.1614Z" fill="white"/>
  <path d="M100.558 9.12958C100.931 8.50253 101.372 7.99876 101.88 7.61805C102.387 7.23734 102.999 7.04688 103.716 7.04688C103.82 7.04688 103.932 7.05079 104.052 7.05818C104.171 7.06579 104.276 7.08449 104.365 7.11428L104.007 9.55529C103.842 9.5105 103.697 9.48072 103.57 9.46571C103.443 9.45115 103.32 9.44332 103.201 9.44332C102.589 9.44332 102.088 9.55529 101.7 9.77924C101.312 10.0032 100.998 10.2719 100.76 10.5854C100.521 10.8988 100.349 11.2201 100.245 11.5484C100.14 11.8772 100.073 12.1385 100.043 12.3322L99.0354 18.0877H96.415L97.9155 9.64487C97.9748 9.36135 98.0385 8.99543 98.1059 8.54753C98.1731 8.09942 98.2212 7.69654 98.2514 7.33822H100.715C100.715 7.41323 100.707 7.52499 100.692 7.67436C100.677 7.82373 100.659 7.98767 100.636 8.16704C100.614 8.3462 100.592 8.52188 100.569 8.69321C100.547 8.86519 100.528 9.01064 100.513 9.13001H100.558L100.558 9.12958Z" fill="white"/>
  <path d="M104.658 9.4875L105.039 7.3374H106.898L107.435 4.20215H110.033L109.495 7.3374H111.914L111.533 9.4875H109.16L108.219 14.515C108.174 14.7374 108.152 14.9453 108.152 15.1379C108.152 15.5234 108.267 15.7904 108.499 15.9389C108.73 16.0874 109.04 16.1609 109.428 16.1609C109.607 16.1609 109.783 16.1483 109.954 16.1228C110.126 16.0972 110.286 16.065 110.436 16.0267L110.279 18.0199C110.055 18.1092 109.79 18.1799 109.484 18.2327C109.178 18.2847 108.898 18.311 108.644 18.311C107.51 18.311 106.704 18.0838 106.226 17.6296C105.748 17.1754 105.509 16.5759 105.509 15.8313C105.509 15.6228 105.521 15.3956 105.543 15.1499C105.565 14.9042 105.599 14.6772 105.644 14.4687L106.562 9.48728H104.658V9.4875Z" fill="white"/>
  <path d="M115.992 9.0176C116.365 8.43534 116.839 7.96158 117.414 7.59543C117.989 7.22973 118.679 7.04688 119.485 7.04688C120.083 7.04688 120.602 7.13645 121.042 7.31561C121.482 7.49477 121.848 7.73372 122.139 8.03224C122.43 8.33098 122.647 8.6856 122.789 9.09609C122.93 9.50703 123.001 9.93578 123.001 10.3839C123.001 10.7572 122.971 11.0931 122.912 11.3917L121.725 18.0877H119.105L120.135 12.1755C120.165 11.9965 120.191 11.8174 120.213 11.638C120.236 11.4588 120.247 11.2799 120.247 11.1005C120.247 10.6228 120.12 10.201 119.866 9.83533C119.612 9.46941 119.149 9.28677 118.478 9.28677C118.044 9.28677 117.664 9.36896 117.335 9.53312C117.007 9.69749 116.72 9.91774 116.473 10.1936C116.227 10.47 116.025 10.7798 115.869 11.1229C115.712 11.4667 115.603 11.8172 115.544 12.1755L114.491 18.0877H111.871L113.349 9.64487C113.408 9.36135 113.472 8.99543 113.54 8.54753C113.607 8.09942 113.655 7.69654 113.685 7.33822H116.148C116.133 7.50281 116.104 7.76024 116.059 8.11095C116.014 8.46187 115.977 8.7643 115.947 9.01804H115.992L115.992 9.0176Z" fill="white"/>
  <path d="M127.18 13.5421C127.165 13.6171 127.158 13.6988 127.158 13.7884C127.158 14.1467 127.229 14.4753 127.371 14.7738C127.512 15.0727 127.71 15.3302 127.964 15.5465C128.218 15.7631 128.516 15.9348 128.86 16.0616C129.203 16.1886 129.577 16.2518 129.98 16.2518C130.666 16.2518 131.252 16.1253 131.738 15.8711C132.223 15.6174 132.659 15.2743 133.048 14.8412L134.548 16.2518C133.219 17.6853 131.599 18.4019 129.688 18.4019C128.957 18.4019 128.285 18.2934 127.672 18.0771C127.06 17.861 126.53 17.5509 126.083 17.1478C125.635 16.7447 125.284 16.2486 125.03 15.6585C124.776 15.0688 124.649 14.3933 124.649 13.6319C124.649 12.7063 124.806 11.844 125.12 11.0454C125.433 10.2468 125.87 9.54888 126.43 8.9514C126.99 8.35457 127.654 7.88776 128.423 7.55162C129.191 7.2157 130.031 7.04785 130.942 7.04785C131.584 7.04785 132.177 7.13743 132.722 7.31659C133.267 7.49575 133.741 7.76448 134.145 8.12279C134.548 8.48111 134.861 8.929 135.085 9.46648C135.309 10.0042 135.421 10.631 135.421 11.3476C135.421 11.5868 135.398 11.9186 135.354 12.3441C135.309 12.7696 135.242 13.1692 135.152 13.5423H127.18L127.18 13.5421ZM133.003 11.6611C133.018 11.5568 133.029 11.4594 133.037 11.3698C133.044 11.2804 133.048 11.1909 133.048 11.1013C133.048 10.5188 132.842 10.0263 132.432 9.62324C132.021 9.22013 131.443 9.01858 130.696 9.01858C130.234 9.01858 129.815 9.10077 129.442 9.26492C129.069 9.42951 128.744 9.64215 128.468 9.90328C128.192 10.1646 127.964 10.4518 127.785 10.7656C127.606 11.0789 127.486 11.3778 127.427 11.6614H133.003V11.6611Z" fill="white"/>
  <path d="M140.85 9.12958C141.223 8.50253 141.664 7.99876 142.172 7.61805C142.679 7.23734 143.291 7.04688 144.008 7.04688C144.112 7.04688 144.224 7.05079 144.344 7.05818C144.463 7.06579 144.568 7.08449 144.657 7.11428L144.299 9.55529C144.134 9.5105 143.989 9.48072 143.862 9.46571C143.735 9.45115 143.612 9.44332 143.493 9.44332C142.881 9.44332 142.38 9.55529 141.992 9.77924C141.604 10.0032 141.29 10.2719 141.052 10.5854C140.813 10.8988 140.641 11.2201 140.537 11.5484C140.432 11.8772 140.365 12.1385 140.335 12.3322L139.327 18.0877H136.707L138.207 9.64487C138.267 9.36135 138.331 8.99543 138.398 8.54753C138.465 8.09942 138.513 7.69654 138.543 7.33822H141.007C141.007 7.41323 140.999 7.52499 140.984 7.67436C140.969 7.82373 140.951 7.98767 140.928 8.16704C140.906 8.3462 140.884 8.52188 140.861 8.69321C140.839 8.86519 140.82 9.01064 140.805 9.13001H140.85L140.85 9.12958Z" fill="white"/>
  <path d="M72.9282 22.0769L73.8864 16.3643H73.9312C74.2447 16.9978 74.7039 17.4957 75.3086 17.858C75.9133 18.2198 76.7084 18.4011 77.6937 18.4011C78.5593 18.4011 79.3544 18.2252 80.0787 17.8747C80.8027 17.5242 81.4258 17.0461 81.9487 16.4415C82.4712 15.8368 82.878 15.1315 83.1693 14.3253C83.4605 13.5191 83.6059 12.6535 83.6059 11.7275C83.6059 11.0411 83.4974 10.4138 83.2813 9.84634C83.0648 9.2793 82.7586 8.79053 82.3631 8.3796C81.9674 7.9691 81.4895 7.65166 80.9297 7.42772C80.37 7.20399 79.7464 7.0918 79.0596 7.0918C78.2534 7.0918 77.5146 7.26356 76.8427 7.60687C76.1709 7.9504 75.6182 8.43569 75.1855 9.06252H75.1181L75.3869 7.33792H72.9011L70.2979 22.0769H72.9282ZM74.8046 11.8421C74.9986 11.3289 75.2636 10.8789 75.5995 10.4919C75.9354 10.1049 76.3346 9.79959 76.7977 9.57651C77.2602 9.35322 77.7531 9.24168 78.2758 9.24168C79.1268 9.24168 79.7797 9.50955 80.2354 10.0453C80.6907 10.581 80.9186 11.2435 80.9186 12.0321C80.9186 12.6126 80.8325 13.1597 80.6609 13.673C80.4889 14.1866 80.2426 14.6331 79.9219 15.0123C79.6005 15.3917 79.2127 15.6931 78.7576 15.9162C78.3019 16.1395 77.7981 16.251 77.2458 16.251C76.4094 16.251 75.7456 15.9907 75.2527 15.4696C74.76 14.9488 74.5139 14.2792 74.5139 13.4604C74.5139 12.8948 74.6107 12.3558 74.805 11.8421H74.8046Z" fill="white"/>
  <path d="M0 6.56904H2.25468L2.48015 7.5568L2.63039 7.68029L2.75563 7.5568C3.50726 6.81604 4.75984 6.32227 6.01242 6.32227C9.26921 6.32227 12.0251 8.79133 12.0251 12.3719C12.0251 15.9524 9.26921 18.4215 6.01242 18.4215C4.78484 18.4215 3.50726 17.9277 2.75563 17.1869L2.63039 17.0634L2.48015 17.1869V23.1228H0V6.56904ZM5.8874 16.199C8.26732 16.199 9.5199 14.4704 9.5199 12.3716C9.5199 10.2729 8.26732 8.54434 5.8874 8.54434C3.75774 8.54434 2.25468 10.2729 2.25468 12.3716C2.25468 14.4704 3.75774 16.199 5.8874 16.199Z" fill="#FF2B85"/>
  <path d="M18.3363 10.9697H20.3879V10.4583C20.3879 9.06374 19.4212 8.41278 18.0769 8.41278C16.9922 8.41278 16.261 8.92416 15.8601 9.97018L13.6197 9.50533C14.115 7.5296 15.8366 6.27441 18.1004 6.27441C21.2606 6.27441 22.8407 7.80856 22.8407 10.8999V18.1751H20.7654L20.5297 16.641C19.7041 17.7798 18.4778 18.361 16.8506 18.361C14.7518 18.361 13.1953 17.1291 13.1953 14.8048C13.1953 12.4108 15.2471 10.9697 18.3363 10.9697ZM17.2753 16.2226C18.1006 16.2226 18.8318 15.9669 19.4449 15.4556C20.0818 14.9209 20.3881 14.2004 20.3881 13.2474V12.9917H18.2422C16.7328 12.9917 15.7896 13.689 15.7896 14.8046C15.7896 15.6412 16.3084 16.2224 17.2753 16.2224V16.2226Z" fill="#FF2B85"/>
  <path d="M25.1523 6.56904H27.407L27.6575 7.5568L27.7827 7.68029L27.908 7.5568C28.4091 6.81604 29.6617 6.32227 30.6638 6.32227C33.6701 6.32227 35.4239 8.29756 35.4239 11.0138V18.1745H32.9185V11.0136C32.8433 9.43338 32.0666 8.54434 30.4133 8.54434C28.9351 8.54434 27.7077 9.72951 27.6575 11.1617V18.1743H25.1523V6.56904Z" fill="#FF2B85"/>
  <path d="M49.0641 18.1749H46.8094L46.559 17.1872L46.4337 17.0637L46.3085 17.1872C45.5569 17.9279 44.3043 18.4217 43.0517 18.4217C39.7949 18.4217 37.0391 15.9526 37.0391 12.3721C37.0391 8.79156 39.7949 6.3225 43.0517 6.3225C44.2793 6.3225 45.5569 6.81627 46.3085 7.55703L46.4337 7.68053L46.559 7.55703V1.36328H49.0641V18.1749ZM43.1767 8.545C40.7968 8.545 39.519 10.2735 39.519 12.3723C39.519 14.4711 40.7968 16.1996 43.1767 16.1996C45.3064 16.1996 46.8094 14.4711 46.8094 12.3723C46.8094 10.2735 45.3064 8.545 43.1767 8.545Z" fill="#FF2B85"/>
  <path d="M56.1966 10.9697H58.2483V10.4583C58.2483 9.06374 57.2816 8.41278 55.9373 8.41278C54.8525 8.41278 54.1213 8.92416 53.7204 9.97018L51.4801 9.50533C51.9754 7.5296 53.6969 6.27441 55.9607 6.27441C59.121 6.27441 60.701 7.80856 60.701 10.8999V18.1751H58.6257L58.39 16.641C57.5645 17.7798 56.3382 18.361 54.711 18.361C52.6122 18.361 51.0557 17.1291 51.0557 14.8048C51.0557 12.4108 53.1075 10.9697 56.1966 10.9697ZM55.1356 16.2226C55.961 16.2226 56.6922 15.9669 57.3053 15.4556C57.9421 14.9209 58.2485 14.2004 58.2485 13.2474V12.9917H56.1025C54.5931 12.9917 53.65 13.689 53.65 14.8046C53.65 15.6412 54.1687 16.2224 55.1356 16.2224V16.2226Z" fill="#FF2B85"/>
  </svg>
